<svg xmlns="http://www.w3.org/2000/svg" viewBox="0 0 80 31" fill="none">
  <g clip-path="url(#clip0_9006_735)">
    <path fill-rule="evenodd" clip-rule="evenodd" d="M49.1929 25.7685C44.5594 29.1797 37.8435 30.9997 32.0611 30.9997C23.9534 30.9997 16.6544 28.0045 11.1323 23.0229C10.6985 22.6311 11.0872 22.0972 11.6078 22.4023C17.5672 25.8656 24.9356 27.949 32.5471 27.949C37.6803 27.949 43.3273 26.8882 48.5196 24.6869C49.304 24.3541 49.96 25.1999 49.1929 25.7685Z" fill="currentColor"/>
    <path fill-rule="evenodd" clip-rule="evenodd" d="M51.1186 23.5675C50.5286 22.8118 47.2036 23.2104 45.7112 23.3872C45.2565 23.4427 45.1871 23.0475 45.5966 22.7632C48.2448 20.9016 52.5902 21.439 53.097 22.063C53.6037 22.6904 52.9651 27.0412 50.4765 29.1177C50.0948 29.4366 49.7303 29.2668 49.9004 28.8438C50.4592 27.4502 51.7121 24.3267 51.1186 23.5675Z" fill="currentColor"/>
    <path fill-rule="evenodd" clip-rule="evenodd" d="M45.8151 9.62025V7.81063C45.8151 7.53676 46.0234 7.35303 46.2733 7.35303H54.3845C54.6448 7.35303 54.853 7.54023 54.853 7.81063V9.36025C54.8496 9.62025 54.6309 9.95999 54.2422 10.4973L50.0391 16.4913C51.6009 16.4531 53.2495 16.6854 54.6656 17.4827C54.9849 17.663 55.0717 17.9265 55.096 18.1865V20.1174C55.096 20.3809 54.8044 20.6894 54.499 20.53C52.0035 19.223 48.6889 19.0809 45.9297 20.5438C45.6485 20.6964 45.3535 20.3913 45.3535 20.1278V18.2939C45.3535 17.9993 45.357 17.4966 45.652 17.0494L50.5215 10.0744H46.2837C46.0234 10.0744 45.8151 9.89066 45.8151 9.62025Z" fill="currentColor"/>
    <path fill-rule="evenodd" clip-rule="evenodd" d="M16.2269 20.9121H13.7591C13.5231 20.8948 13.3357 20.718 13.3184 20.4926V7.84266C13.3184 7.58959 13.5301 7.38852 13.7939 7.38852H16.095C16.3345 7.39891 16.5254 7.58265 16.5427 7.81146V9.46507H16.5878C17.1883 7.86692 18.3163 7.12158 19.8365 7.12158C21.381 7.12158 22.3459 7.86692 23.04 9.46507C23.637 7.86692 24.9941 7.12158 26.4483 7.12158C27.4826 7.12158 28.6141 7.54799 29.3048 8.5048C30.0857 9.56907 29.9261 11.1152 29.9261 12.4707L29.9226 20.4545C29.9226 20.7076 29.7109 20.9121 29.4471 20.9121H26.9828C26.7364 20.8948 26.5386 20.6972 26.5386 20.4545V13.7499C26.5386 13.216 26.5872 11.8848 26.4692 11.3787C26.2852 10.5294 25.7333 10.2901 25.0184 10.2901C24.4214 10.2901 23.7966 10.6888 23.5433 11.3267C23.2899 11.9646 23.3142 13.0323 23.3142 13.7499V20.4545C23.3142 20.7076 23.1025 20.9121 22.8387 20.9121H20.3745C20.1246 20.8948 19.9302 20.6972 19.9302 20.4545L19.9267 13.7499C19.9267 12.339 20.1593 10.2624 18.4065 10.2624C16.633 10.2624 16.7024 12.287 16.7024 13.7499V20.4545C16.7024 20.7076 16.4907 20.9121 16.2269 20.9121" fill="currentColor"/>
    <path fill-rule="evenodd" clip-rule="evenodd" d="M61.8364 7.12158C65.4981 7.12158 67.4799 10.2624 67.4799 14.2561C67.4799 18.1145 65.2899 21.1756 61.8364 21.1756C58.2407 21.1756 56.2832 18.0348 56.2832 14.1209C56.2832 10.1827 58.265 7.12158 61.8364 7.12158ZM61.8573 9.70428C60.0386 9.70428 59.924 12.1795 59.924 13.7222C59.924 15.2683 59.8998 18.5686 61.8364 18.5686C63.7488 18.5686 63.8391 15.9062 63.8391 14.2838C63.8391 13.216 63.794 11.9403 63.4712 10.928C63.1935 10.0475 62.6417 9.70428 61.8573 9.70428Z" fill="currentColor"/>
    <path fill-rule="evenodd" clip-rule="evenodd" d="M72.2293 20.9121H69.7719C69.5255 20.8948 69.3277 20.6972 69.3277 20.4545L69.3242 7.80106C69.345 7.56879 69.5498 7.38852 69.7997 7.38852H72.087C72.3021 7.39891 72.4792 7.54452 72.5277 7.74212V9.67654H72.5729C73.2636 7.94666 74.2319 7.12158 75.9361 7.12158C77.0432 7.12158 78.1226 7.52025 78.8168 8.61226C79.4624 9.62454 79.4624 11.3267 79.4624 12.5504V20.5134C79.4346 20.7353 79.2298 20.9121 78.9869 20.9121H76.5122C76.2866 20.8948 76.0992 20.7284 76.0749 20.5134V13.6424C76.0749 12.2592 76.2345 10.2347 74.5304 10.2347C73.9299 10.2347 73.3781 10.6368 73.1039 11.247C72.7568 12.02 72.7117 12.7896 72.7117 13.6424V20.4545C72.7082 20.7076 72.493 20.9121 72.2293 20.9121" fill="currentColor"/>
    <path fill-rule="evenodd" clip-rule="evenodd" d="M39.3494 14.8694C39.3494 15.8297 39.3737 16.6305 38.8878 17.4833C38.4956 18.1767 37.8709 18.6031 37.1802 18.6031C36.2327 18.6031 35.6773 17.882 35.6773 16.8177C35.6773 14.7169 37.562 14.3355 39.3494 14.3355V14.8694ZM41.838 20.8772C41.6748 21.0228 41.4388 21.0332 41.2549 20.9361C40.4358 20.2567 40.2865 19.9412 39.8388 19.2929C38.4852 20.6727 37.5238 21.0852 35.771 21.0852C33.692 21.0852 32.0781 19.806 32.0781 17.2441C32.0781 15.2438 33.161 13.8814 34.709 13.2158C36.0487 12.6265 37.9194 12.5225 39.3494 12.3595V12.0406C39.3494 11.4547 39.3945 10.7614 39.0475 10.2552C38.749 9.8011 38.1728 9.61389 37.6626 9.61389C36.722 9.61389 35.8856 10.0958 35.6808 11.0942C35.6391 11.316 35.476 11.5344 35.2504 11.5448L32.859 11.2883C32.6577 11.2432 32.4321 11.0803 32.4911 10.7718C33.0395 7.87361 35.6634 7 38.0097 7C39.2106 7 40.7794 7.31894 41.7269 8.22721C42.9278 9.34696 42.8132 10.8411 42.8132 12.467V16.3081C42.8132 17.4625 43.2922 17.9686 43.7434 18.5927C43.8996 18.8145 43.9343 19.0815 43.733 19.2479C43.2297 19.6673 42.3343 20.4473 41.8414 20.8841L41.8379 20.8772" fill="currentColor"/>
    <path fill-rule="evenodd" clip-rule="evenodd" d="M6.99785 14.8694C6.99785 15.8297 7.02214 16.6305 6.53623 17.4833C6.14403 18.1767 5.52276 18.6031 4.82861 18.6031C3.88108 18.6031 3.32923 17.882 3.32923 16.8177C3.32923 14.7169 5.21386 14.3355 6.99785 14.3355V14.8694ZM9.48639 20.8772C9.32327 21.0228 9.08725 21.0332 8.9033 20.9361C8.0842 20.2567 7.93843 19.9412 7.48722 19.2929C6.13362 20.6727 5.17569 21.0852 3.41947 21.0852C1.34394 21.0852 -0.273438 19.806 -0.273438 17.2441C-0.273438 15.2438 0.812916 13.8814 2.35741 13.2158C3.69713 12.6265 5.56788 12.5225 6.99785 12.3595V12.0406C6.99785 11.4547 7.04297 10.7614 6.69936 10.2552C6.3974 9.8011 5.82125 9.61389 5.31452 9.61389C4.37394 9.61389 3.53401 10.0958 3.32923 11.0942C3.28758 11.316 3.12445 11.5344 2.90233 11.5448L0.507488 11.2883C0.306182 11.2432 0.0840522 11.0803 0.139585 10.7718C0.691439 7.87361 3.31188 7 5.65813 7C6.85901 7 8.42781 7.31894 9.37533 8.22721C10.5762 9.34696 10.4617 10.8411 10.4617 12.467V16.3081C10.4617 17.4625 10.9407 17.9686 11.3919 18.5927C11.5515 18.8145 11.5862 19.0815 11.3849 19.2479C10.8816 19.6673 9.98619 20.4473 9.49333 20.8841L9.4864 20.8772" fill="currentColor"/>
  </g>
  <defs>
    <clipPath id="clip0_9006_735">
      <rect width="79" height="31" fill="white" transform="translate(0.046875)"/>
    </clipPath>
  </defs>
</svg>