<svg viewBox="0 0 71 29" fill="none" xmlns="http://www.w3.org/2000/svg">
<g clip-path="url(#clip0_9006_744)">
<path d="M9.11582 6.62207C4.18181 6.62207 0.0703125 8.70968 0.0703125 15.0079C0.0703125 19.9975 2.835 23.1396 9.24322 23.1396C16.786 23.1396 17.2695 18.1844 17.2695 18.1844H13.6147C13.6147 18.1844 12.8311 20.8526 9.02027 20.8526C5.91648 20.8526 3.68412 18.7615 3.68412 15.8306H17.6517V13.9915C17.6517 11.0919 15.806 6.62207 9.11582 6.62207ZM8.98842 8.97265C11.9429 8.97265 13.9571 10.7778 13.9571 13.4832H3.76496C3.76496 10.611 6.39397 8.97265 8.98842 8.97265Z" fill="currentColor"/>
<path d="M17.6493 0.522705V19.9761C17.6493 21.0804 17.5703 22.6308 17.5703 22.6308H21.0563C21.0563 22.6308 21.1814 21.5173 21.1814 20.4996C21.1814 20.4996 22.9037 23.1867 27.5867 23.1867C32.518 23.1867 35.8677 19.7722 35.8677 14.8803C35.8677 10.3294 32.7909 6.66915 27.5946 6.66915C22.7286 6.66915 21.2166 9.28973 21.2166 9.28973V0.522705H17.6493ZM26.6948 9.07532C30.0436 9.07532 32.1731 11.554 32.1731 14.8803C32.1731 18.4471 29.7136 20.7806 26.7187 20.7806C23.1446 20.7806 21.2166 17.9974 21.2166 14.9121C21.2166 12.0371 22.9466 9.07532 26.6948 9.07532Z" fill="currentColor"/>
<path d="M44.5299 6.62207C37.107 6.62207 36.631 10.6755 36.631 11.3232H40.3256C40.3256 11.3232 40.5194 8.95677 44.2751 8.95677C46.7156 8.95677 48.6067 10.0708 48.6067 12.2126V12.975H44.2751C38.5245 12.975 35.4844 14.6527 35.4844 18.0573C35.4844 21.4079 38.2934 23.231 42.0893 23.231C47.2627 23.231 48.9292 20.3801 48.9292 20.3801C48.9292 21.514 49.0169 22.6314 49.0169 22.6314H52.3014C52.3014 22.6314 52.174 21.2464 52.174 20.3602V12.701C52.174 7.67896 48.1122 6.62207 44.5299 6.62207ZM48.6067 15.262V16.2785C48.6067 17.6042 47.7864 20.9002 42.9573 20.9002C40.3128 20.9002 39.179 19.584 39.179 18.0573C39.179 15.2799 42.9972 15.262 48.6067 15.262Z" fill="currentColor"/>
<path d="M50.1836 7.25854H54.3401L60.3052 19.1771L66.2567 7.25854H70.0218L59.1813 28.4773H55.2319L58.36 22.5623L50.1836 7.25854Z" fill="currentColor"/>
</g>
<defs>
<clipPath id="clip0_9006_744">
<rect width="70" height="28" fill="white" transform="translate(0.046875 0.5)"/>
</clipPath>
</defs>
</svg>