<svg width="17" height="17" viewBox="0 0 17 17" fill="none" xmlns="http://www.w3.org/2000/svg">
<path fill-rule="evenodd" clip-rule="evenodd" d="M8.33301 16.7998C12.7513 16.7998 16.333 13.2181 16.333 8.7998C16.333 4.38153 12.7513 0.799805 8.33301 0.799805C3.91473 0.799805 0.333008 4.38153 0.333008 8.7998C0.333008 13.2181 3.91473 16.7998 8.33301 16.7998ZM12.0401 7.50691C12.4306 7.11639 12.4306 6.48322 12.0401 6.0927C11.6496 5.70217 11.0164 5.70217 10.6259 6.0927L7.33301 9.38559L6.04011 8.0927C5.64959 7.70217 5.01643 7.70217 4.6259 8.0927C4.23538 8.48322 4.23538 9.11639 4.6259 9.50691L6.6259 11.5069C7.01643 11.8974 7.64959 11.8974 8.04011 11.5069L12.0401 7.50691Z" fill="#635BFF"/>
</svg>
