<svg xmlns="http://www.w3.org/2000/svg" viewBox="0 0 71 25" fill="none">
  <path d="M4.92877 17.6405C5.22075 18.4158 5.62499 19.0787 6.14157 19.6292C6.65814 20.1798 7.27013 20.6012 7.97753 20.8933C8.685 21.1855 9.4542 21.3315 10.2852 21.3315C11.0937 21.3315 11.8517 21.1798 12.5592 20.8764C13.2666 20.573 13.8842 20.1461 14.412 19.5955C14.9397 19.0449 15.3496 18.3877 15.6416 17.6236C15.9336 16.8596 16.0795 16.0057 16.0795 15.0618V0.5H19.6168V24.0955H16.1132V21.9045C15.3272 22.7359 14.4007 23.3764 13.3339 23.8259C12.2671 24.2753 11.1162 24.5 9.88095 24.5C8.62321 24.5 7.44977 24.2809 6.3605 23.8427C5.27129 23.4045 4.32797 22.7809 3.53074 21.9719C2.73352 21.1629 2.10461 20.1911 1.64424 19.0562C1.1838 17.9214 0.953613 16.6574 0.953613 15.264V0.5H4.49084V15.0618C4.49084 16.0057 4.63679 16.8652 4.92877 17.6405Z" fill="currentColor"/>
  <path d="M25.7135 0.5V9.09549C26.4995 8.30899 27.4092 7.68545 28.4422 7.22473C29.4753 6.76402 30.5983 6.53369 31.811 6.53369C33.0687 6.53369 34.2477 6.76961 35.3482 7.24151C36.4487 7.71342 37.4031 8.35389 38.2117 9.16292C39.0202 9.97195 39.6603 10.9269 40.1319 12.0281C40.6036 13.1292 40.8393 14.2978 40.8393 15.5337C40.8393 16.7696 40.6036 17.9326 40.1319 19.0224C39.6603 20.1123 39.0202 21.0618 38.2117 21.8707C37.4031 22.6797 36.4487 23.3202 35.3482 23.7921C34.2477 24.264 33.0687 24.4999 31.811 24.4999C30.5982 24.4999 29.4697 24.2696 28.4254 23.8089C27.3811 23.3482 26.4658 22.7246 25.6798 21.9381V24.0954H22.311V0.5H25.7135ZM26.1009 17.8596C26.404 18.5787 26.8252 19.2079 27.3642 19.7472C27.9032 20.2866 28.5321 20.7136 29.2507 21.0282C29.9695 21.3428 30.7442 21.5001 31.5752 21.5001C32.3838 21.5001 33.1473 21.3428 33.866 21.0282C34.5846 20.7136 35.2078 20.2866 35.7357 19.7472C36.2635 19.208 36.6845 18.5787 36.999 17.8596C37.3134 17.1405 37.4706 16.3652 37.4706 15.5337C37.4706 14.7023 37.3134 13.9213 36.999 13.191C36.6845 12.4607 36.2635 11.8259 35.7357 11.2865C35.2079 10.7473 34.5847 10.3259 33.866 10.0225C33.1472 9.71918 32.3837 9.5674 31.5752 9.5674C30.7667 9.5674 30.0031 9.7191 29.2845 10.0225C28.5658 10.3259 27.937 10.7473 27.3979 11.2865C26.859 11.8259 26.4322 12.4607 26.1178 13.191C25.8034 13.9213 25.6462 14.7023 25.6462 15.5337C25.6461 16.3652 25.7977 17.1405 26.1009 17.8596Z" fill="currentColor"/>
  <path d="M42.7601 12.0612C43.2092 10.9825 43.8269 10.0331 44.6129 9.2129C45.3988 8.39268 46.331 7.74662 47.409 7.27471C48.487 6.80281 49.6549 6.56689 50.9125 6.56689C52.1478 6.56689 53.2932 6.79162 54.3488 7.241C55.4043 7.69046 56.3138 8.31407 57.0774 9.11184C57.841 9.90953 58.4362 10.8534 58.8628 11.9433C59.2896 13.0332 59.5029 14.2186 59.5029 15.4995V16.6119H45.5225C45.6348 17.3085 45.8594 17.9546 46.1963 18.55C46.5332 19.1455 46.9542 19.6624 47.4595 20.1006C47.9649 20.5388 48.5376 20.8815 49.1776 21.1287C49.8177 21.3758 50.497 21.4995 51.2158 21.4995C53.2596 21.4995 54.9103 20.6567 56.1679 18.9713L58.6271 20.7915C57.7737 21.9376 56.7182 22.8365 55.4605 23.4882C54.2028 24.1398 52.7879 24.4657 51.2158 24.4657C49.9357 24.4657 48.7398 24.2409 47.6281 23.7915C46.5164 23.3421 45.5507 22.7129 44.7309 21.9038C43.9112 21.0948 43.2655 20.1454 42.7939 19.0555C42.3223 17.9657 42.0864 16.7802 42.0864 15.4994C42.0863 14.2859 42.3109 13.1398 42.7601 12.0612ZM47.4932 10.7297C46.5387 11.5274 45.9043 12.5892 45.5899 13.9151H56.0669C55.7749 12.5892 55.1516 11.5274 54.1971 10.7297C53.2426 9.93198 52.1253 9.5331 50.8452 9.5331C49.565 9.5331 48.4477 9.93198 47.4932 10.7297Z" fill="currentColor"/>
  <path d="M65.8697 11.1179C65.1511 11.9044 64.7917 12.9718 64.7917 14.3202V24.0955H61.3892V6.90446H64.7579V9.02806C65.1847 8.33143 65.7405 7.78084 66.4255 7.37636C67.1105 6.97181 67.9246 6.76953 68.8679 6.76953H70.047V9.93809H68.6321C67.5092 9.93816 66.5884 10.3314 65.8697 11.1179Z" fill="currentColor"/>
</svg>