<svg viewBox="0 0 121 31" fill="none" xmlns="http://www.w3.org/2000/svg">
<g clip-path="url(#clip0_9006_749)">
<path d="M0.646484 7.05426C0.646484 7.05426 3.60057 19.1816 4.07203 21.15C4.62231 23.4475 5.61382 24.2931 8.47251 23.7228L10.3171 16.204C10.7846 14.3364 11.0982 13.0049 11.3987 11.105H11.4516C11.6628 13.0236 11.9634 14.342 12.3482 16.2105C12.3482 16.2105 13.0991 19.6239 13.4836 21.4167C13.8691 23.2089 14.9421 24.3384 17.7422 23.7235L22.1374 7.05554H18.5888L17.0883 14.2619C16.6849 16.3595 16.3188 17.9986 16.0365 19.9176H15.9865C15.73 18.0177 15.4037 16.4436 14.9935 14.3999L13.4312 7.05554H9.73382L8.0626 14.2148C7.58913 16.3903 7.1463 18.1471 6.86469 20.001H6.81369C6.52531 18.2551 6.14119 16.0472 5.72525 13.9413C5.72525 13.9413 4.73235 8.8206 4.38398 7.05554L0.64683 7.05602L0.646484 7.05426ZM34.4752 7.05426V23.7222H37.8538V20.1828V7.05347H34.4752V7.05426ZM82.0594 7.05426V19.3505C82.0594 21.0458 82.3779 22.2336 83.0592 22.9592C83.6544 23.5939 84.6349 24.0048 85.8098 24.0048C86.8087 24.0048 87.7915 23.815 88.2547 23.6422L88.2111 20.9971C87.8665 21.0821 87.47 21.15 86.9277 21.15C85.7768 21.15 85.3908 20.4116 85.3908 18.8894V14.1849H88.3333V10.9958H85.3908V7.05431H82.0592L82.0594 7.05426ZM26.9248 10.9182C24.8251 10.9182 23.1584 11.5089 22.2499 12.0349L22.9147 14.3158C23.7462 13.7906 25.0702 13.3559 26.3237 13.3559C28.3992 13.3506 28.7385 14.5316 28.7385 15.2891V15.4682C24.2161 15.4614 21.3594 17.0292 21.3594 20.225C21.3594 22.1762 22.8136 24.0048 25.3423 24.0048C26.8989 24.0048 28.2007 23.3828 28.9809 22.3863H29.0574C29.0574 22.3863 29.574 24.5505 32.4203 23.7229C32.2708 22.8222 32.2222 21.8618 32.2222 20.7052V16.2524C32.2222 13.4144 31.0127 10.9183 26.9249 10.9183L26.9248 10.9182ZM47.1352 10.9182C45.021 10.9182 44.0709 11.9916 43.4948 12.9023H43.4447V11.2009H40.2205V23.723H43.617V16.3793C43.617 16.035 43.6563 15.671 43.7762 15.3543C44.0577 14.6149 44.7443 13.75 45.8406 13.75C47.2111 13.75 47.8524 14.9108 47.8524 16.5861V23.7229H51.2453V16.2903C51.2453 15.9617 51.2903 15.5659 51.3868 15.2753C51.6657 14.4342 52.406 13.7499 53.425 13.7499C54.8144 13.7499 55.4812 14.8905 55.4812 16.8618V23.7229H58.8765V16.3478C58.8765 12.4583 56.9052 10.9183 54.6799 10.9183C53.6943 10.9183 52.9165 11.1659 52.2132 11.5984C51.622 11.9619 51.0928 12.4782 50.6303 13.1581H50.5802C50.042 11.8086 48.7794 10.9183 47.1346 10.9183L47.1352 10.9182ZM65.7867 10.9182C63.6875 10.9182 62.021 11.5089 61.1117 12.0349L61.7775 14.3158C62.6082 13.7906 63.9329 13.3559 65.1859 13.3559C67.2599 13.3506 67.6 14.5316 67.6 15.2891V15.4682C63.0782 15.4614 60.2212 17.0292 60.2212 20.225C60.2212 22.1762 61.6762 24.0048 64.2061 24.0048C65.7615 24.0048 67.0637 23.3828 67.8425 22.3863H67.9193C67.9193 22.3863 68.4359 24.5505 71.2826 23.7229C71.1329 22.8222 71.0848 21.8618 71.0848 20.7052V16.2524C71.0848 13.4144 69.875 10.9183 65.7866 10.9183L65.7867 10.9182ZM79.8917 10.9182C78.5911 10.9182 77.1113 11.7593 76.4902 13.5624H76.3953V11.2008H73.3378V23.7228H76.8233V17.3107C76.8233 16.9648 76.8443 16.6632 76.8989 16.3867C77.1567 15.0435 78.1822 14.1848 79.654 14.1848C80.058 14.1848 80.3472 14.2287 80.66 14.2739V10.9957C80.3977 10.9426 80.2183 10.9181 79.8919 10.9181L79.8917 10.9182ZM28.8476 17.6872V19.2493C28.8476 19.4804 28.8275 19.7188 28.7637 19.9273C28.5022 20.7949 27.6051 21.5281 26.4836 21.5281C25.5486 21.5281 24.8058 20.9964 24.8058 19.8718C24.8058 18.1516 26.696 17.676 28.8477 17.6872H28.8476ZM67.7095 17.6872V19.2493C67.7095 19.4804 67.689 19.7188 67.6255 19.9273C67.364 20.7949 66.4672 21.5281 65.3457 21.5281C64.4105 21.5281 63.6677 20.9964 63.6677 19.8718C63.6677 18.1516 65.5578 17.676 67.7096 17.6872H67.7095Z" fill="currentColor"/>
<path d="M106.6 1.02563C105.51 1.02563 104.643 1.63586 104.643 2.37875L105.305 9.89326C105.378 10.346 105.932 10.6952 106.601 10.6952C107.272 10.6943 107.823 10.3454 107.898 9.89326L108.563 2.37875C108.563 1.63593 107.694 1.0257 106.602 1.0257L106.6 1.02563ZM95.8056 7.05342C95.2393 7.06688 94.596 7.4964 94.1869 8.20714C93.6396 9.15355 93.7366 10.2112 94.3769 10.5822L101.203 13.7671C101.63 13.926 102.209 13.6226 102.544 13.0433C102.544 13.0432 102.544 13.0431 102.544 13.043C102.881 12.4609 102.855 11.8063 102.5 11.516L96.335 7.18375C96.1749 7.09084 95.9947 7.04903 95.806 7.05352L95.8056 7.05342ZM117.395 7.05342C117.206 7.04894 117.027 7.09075 116.867 7.18366L110.701 11.5159C110.348 11.8062 110.322 12.4608 110.657 13.0429L110.658 13.0432C110.994 13.6225 111.571 13.9259 111.998 13.767L118.827 10.5823C119.47 10.2113 119.562 9.15367 119.019 8.2072C118.608 7.49644 117.963 7.06695 117.397 7.05349L117.395 7.05342ZM101.458 16.9678C101.37 16.9666 101.284 16.9802 101.204 17.0104L94.3778 20.1914C93.7376 20.5641 93.6406 21.6221 94.1878 22.5696C94.7334 23.5141 95.695 23.9632 96.3355 23.5927L102.501 19.2638C102.856 18.97 102.882 18.3156 102.545 17.7341L102.548 17.7354C102.275 17.2617 101.841 16.9729 101.458 16.9677L101.458 16.9678ZM111.746 16.9678C111.363 16.973 110.93 17.2618 110.657 17.7355L110.659 17.7342C110.324 18.3157 110.35 18.9701 110.702 19.2639L116.868 23.5928C117.508 23.9633 118.47 23.5142 119.018 22.5697C119.562 21.6222 119.47 20.5642 118.827 20.1915L111.999 17.0105C111.919 16.9803 111.834 16.9667 111.746 16.9679L111.746 16.9678ZM106.599 20.0821C105.931 20.0829 105.379 20.4306 105.306 20.8822L104.644 28.3964C104.644 29.1405 105.511 29.7495 106.601 29.7495C107.694 29.7495 108.563 29.1405 108.563 28.3964L107.899 20.8822C107.824 20.4306 107.272 20.0829 106.602 20.0821H106.599H106.599Z" fill="currentColor"/>
</g>
<defs>
<clipPath id="clip0_9006_749">
<rect width="120" height="30" fill="white" transform="translate(0.046875 0.5)"/>
</clipPath>
</defs>
</svg>